# xmcd CD database file
#
# Track frame offsets:
#	150
#	17275
#	32665
#	46780
#
# Disc length: 915 seconds
#
# Revision: 0
# Processed by: cddbd v1.5.1PL0 Copyright (c) Steve Scherf et al.
# Submitted via: CDex 1.51
#
DISCID=1e039104
DTITLE=STRAIGHTENER - Silent film Soundtrack
DYEAR=1900
DGENRE=Rock
TTITLE0=COLD SLEEP
TTITLE1=KAISER LEE
TTITLE2=THE SWORD
TTITLE3=NEVERLAND
EXTD=
EXTT0=
EXTT1=
EXTT2=
EXTT3=
PLAYORDER=
